#!OML:ASF E:/inclinewalkrobotboard/Project1/Captureday1/Session1/subject1.ASF
:FULLY-SPECIFIED
:DEGREES
1
root 0 0 0 -0.4605660465081498 -2.143494842809524 -4.41212897137117
lowerback 10.280366510094693 1.7913957531909872 1.0628451468054374
upperback -0.18561847696827252 2.5238368108674987 0.5087075875468272
thorax -5.907455849445112 1.2034458270158859 -0.4573107510113007
lowerneck -9.786676178963589 -3.3729399524011625 -0.4589002103818343
upperneck 12.625378845485518 -5.087232440068079 3.5326356292926366
head 5.804668954589232 -2.225840898825944 0.8386892173530456
rclavicle 4.566560285008539E-17 -3.8721300803059335E-16
rhumerus -25.844266116733102 -4.022493810989801 -71.36519753602215
rradius 61.32075874789622
rwrist -5.5889993723825
rhand -10.945101583727563 -20.032269991018055
rfingers 7.125019999999949
rthumb 15.091663537032044 -49.43561043827364
lclavicle -4.618282212437459E-17 -3.3644867838248796E-16
lhumerus -42.79702454894981 0.23740102003795788 83.50554121050806
lradius 43.457840624851855
lwrist 1.1739239589115484
lhand -15.935703351784234 -11.008806249428153
lfingers 7.125019999999928
lthumb 10.347831147917471 18.13823680364682
rfemur -2.778650241200771 1.0359094575551606 5.567886793389331
rtibia 8.35232953324576
rfoot -1.568975908580084 -1.3573226682657937
rtoes 0.7951673149660283
lfemur -6.2223832747999435 -3.810498426949092 -11.640344796685408
ltibia 26.73110770179342
lfoot -20.402917298879878 8.957448084134557
ltoes -46.41458570265255
2
root 0 0 0 -0.4700698966286695 -2.126401298266281 -4.370895927076174
lowerback 10.949097578439705 1.7674256288533898 0.9637069433648199
upperback -0.0916285201919846 2.4812965816353216 0.476073074996506
thorax -6.194789882653486 1.1824701650427387 -0.4415189628091981
lowerneck -9.603976450200518 -3.423021297017071 -0.3486409887994731
upperneck 10.792836975139032 -5.096643144163055 3.4376968291477645
head 5.175871283371837 -2.2616997220206656 0.8062869247253772
rclavicle 2.5616669417251655E-17 -3.8997677516617943E-16
rhumerus -25.539880177634295 -4.204210826664379 -71.16500862588
rradius 61.45959370002495
rwrist -5.623302121846045
rhand -11.043857400050715 -19.700865230685803
rfingers 7.125019999999946
rthumb 14.99834311677099 -49.114931175784776
lclavicle -3.87513022238726E-17 -3.4636344146416286E-16
lhumerus -42.786370075619224 0.2340258551768189 83.48919308510466
lradius 43.443404687189464
lwrist 1.1977452329483098
lhand -15.960938678202766 -10.924395826245052
lfingers 7.125019999999927
lthumb 10.321968438241493 18.2079775487838
rfemur -2.6838871021240163 0.9957257346951971 5.364485032954045
rtibia 8.077421435298685
rfoot -1.5014317539729118 -1.3071844413412066
rtoes 0.7669165324198826
lfemur -6.2641547192684435 -3.7783595962698713 -11.739206629258657
ltibia 26.824213764660744
lfoot -20.2224654987116 8.798939777190425
ltoes -45.89577214448738
3
root 0 0 0 -0.489240253193274 -2.111169976813894 -4.310326504334761
lowerback 11.72964268170328 1.7201683270736248 0.8382063389802403
upperback 0.005097838880561006 2.404859471189173 0.4447330077765713
thorax -6.5433020255448335 1.1447795556321925 -0.40738506646220307
lowerneck -9.426530774927944 -3.4645565229879454 -0.20455901242402919
upperneck 8.598139098999628 -5.076942513725818 3.284214883924435
head 4.429435587253472 -2.2922421369025177 0.7549818118342964
rclavicle 9.98149183720054E-18 -3.903261391767955E-16
rhumerus -25.097265367149337 -4.3269942686348895 -70.83829207755862
rradius 61.87069796325478
rwrist -5.782053235532441
rhand -11.127766102733359 -19.51670443622683
rfingers 7.125019999999944
rthumb 14.919260989388441 -48.93909544805784
lclavicle -4.7871991821889755E-17 -3.5571748448398084E-16
lhumerus -42.75958897061159 0.21553400140241702 83.46952544665905
lradius 43.432990020799664
lwrist 1.2430005179825854
lhand -16.001173560645228 -10.80010448320296
lfingers 7.125019999999926
lthumb 10.280637728189344 18.323184321568256
rfemur -2.647261768609643 0.9784336841035517 5.281349833789905
rtibia 7.974422833093341
rfoot -1.4708728962056186 -1.2867271109099367
rtoes 0.7570424298049225
lfemur -6.311530206294685 -3.7418996597794187 -11.845592449934827
ltibia 26.929895115499612
lfoot -20.02809196290019 8.628880535491758
ltoes -45.34097229898741
4
root 0 0 0 -0.5101372243765441 -2.094169983497869 -4.2434634730447325
lowerback 12.594215124603686 1.6659511188881924 0.6981772487283039
upperback 0.10925703900943909 2.317336306040525 0.410170186359055
thorax -6.931528058781448 1.101565444269245 -0.36860054432101597
lowerneck -9.230657420993648 -3.5084043281648265 -0.04181810396262298
upperneck 6.152531082761099 -5.051191311753394 3.1104087900492248
head 3.5978791689593788 -2.3246344262463987 0.6968890450931529
rclavicle -5.8692174779931745E-18 -3.871495226098541E-16
rhumerus -24.299557283027774 -4.391024498464745 -70.20804472102857
rradius 62.84159505336244
rwrist -6.192146877498466
rhand -11.211983783307453 -19.517449803286713
rfingers 7.125019999999943
rthumb 14.839947829060556 -48.948023906550226
lclavicle -7.059705799217899E-17 -3.6763097558174384E-16
lhumerus -42.71744550760331 0.18062684050588013 83.44180803506968
lradius 43.429033533965445
lwrist 1.3164781450366179
lhand -16.060446653345853 -10.621039257859273
lfingers 7.125019999999925
lthumb 10.21921521267874 18.494176761151127
rfemur -2.6597060854310497 0.9808020303408627 5.299491208672569
rtibia 8.014544882104774
rfoot -1.472045579698829 -1.291504088089661
rtoes 0.761714712965176
lfemur -6.360695892981601 -3.7035259460553607 -11.953133801475177
ltibia 27.040541738860536
lfoot -19.83024244648677 8.45608836648359
ltoes -44.780479031117714
